<svg width="512" height="512" viewBox="0 0 512 512" fill="none" xmlns="http://www.w3.org/2000/svg" role="img" aria-labelledby="title desc">
  <title id="title">BrightSteps app icon</title>
  <desc id="desc">A large enchanted lantern with a small magical path.</desc>

  <defs>
    <linearGradient id="bg" x1="64" y1="40" x2="456" y2="472" gradientUnits="userSpaceOnUse">
      <stop stop-color="#F7F5FF"/>
      <stop offset="1" stop-color="#E8F1FF"/>
    </linearGradient>
    <linearGradient id="lanternBody" x1="170" y1="92" x2="346" y2="392" gradientUnits="userSpaceOnUse">
      <stop stop-color="#2E4FA9"/>
      <stop offset="1" stop-color="#162C66"/>
    </linearGradient>
    <radialGradient id="glow" cx="0" cy="0" r="1" gradientUnits="userSpaceOnUse" gradientTransform="translate(258 258) rotate(90) scale(78)">
      <stop stop-color="#FFF8CC"/>
      <stop offset="1" stop-color="#F6B531"/>
    </radialGradient>
  </defs>

  <rect x="24" y="24" width="464" height="464" rx="104" fill="url(#bg)"/>

  <!-- tiny path so lantern is dominant -->
  <ellipse cx="258" cy="378" rx="120" ry="24" fill="#DCEAFE" opacity="0.7"/>
  <rect x="166" y="384" width="56" height="24" rx="8" transform="rotate(-8 166 384)" fill="#A8CAFF" stroke="#5A88D6" stroke-width="3"/>
  <rect x="234" y="366" width="68" height="28" rx="8" transform="rotate(-3 234 366)" fill="#89B9FF" stroke="#4A7FD0" stroke-width="3"/>
  <rect x="312" y="344" width="78" height="30" rx="8" transform="rotate(5 312 344)" fill="#6AA6FF" stroke="#3E73C5" stroke-width="3"/>

  <!-- BIG lantern -->
  <path d="M176 144C176 99.8 211.8 64 256 64C300.2 64 336 99.8 336 144" stroke="#1A3278" stroke-width="14" stroke-linecap="round"/>
  <path d="M198 142H314L300 118H212L198 142Z" fill="#27458F" stroke="#193270" stroke-width="7" stroke-linejoin="round"/>
  <rect x="196" y="142" width="120" height="30" rx="6" fill="#234086" stroke="#193270" stroke-width="7"/>

  <path d="M170 174H342L324 406H188L170 174Z" fill="url(#lanternBody)" stroke="#14285D" stroke-width="10" stroke-linejoin="round"/>

  <rect x="184" y="402" width="144" height="18" rx="5" fill="#13265E"/>
  <rect x="200" y="418" width="18" height="12" rx="3" fill="#13265E"/>
  <rect x="294" y="418" width="18" height="12" rx="3" fill="#13265E"/>

  <path d="M202 210H310L296 380H216L202 210Z" fill="#EDF4FF" stroke="#9FB9E8" stroke-width="5"/>
  <path d="M256 216V376" stroke="#85A6DF" stroke-width="8" stroke-linecap="round"/>
  <path d="M214 290H298" stroke="#85A6DF" stroke-width="8" stroke-linecap="round"/>

  <circle cx="256" cy="290" r="44" fill="url(#glow)"/>
  <circle cx="256" cy="290" r="18" fill="#E2871A"/>

  <path d="M370 154L378 172L396 180L378 188L370 206L362 188L344 180L362 172L370 154Z" fill="#FFD86A" stroke="#DCA63D" stroke-width="3"/>
</svg>
